<svg width="14" height="15" viewBox="0 0 14 15" fill="none" xmlns="http://www.w3.org/2000/svg">
<path d="M1 3.81163C1.27614 3.81163 1.5 3.59463 1.5 3.32696C1.5 3.05928 1.27614 2.84229 1 2.84229C0.723858 2.84229 0.5 3.05928 0.5 3.32696C0.5 3.59463 0.723858 3.81163 1 3.81163Z" stroke="#595D62" stroke-linecap="round" stroke-linejoin="round"/>
<path d="M4.5 3.3269H13.5" stroke="#595D62" stroke-linecap="round" stroke-linejoin="round"/>
<path d="M1 8.17369C1.27614 8.17369 1.5 7.95669 1.5 7.68902C1.5 7.42134 1.27614 7.20435 1 7.20435C0.723858 7.20435 0.5 7.42134 0.5 7.68902C0.5 7.95669 0.723858 8.17369 1 8.17369Z" stroke="#595D62" stroke-linecap="round" stroke-linejoin="round"/>
<path d="M4.5 7.68896H13.5" stroke="#595D62" stroke-linecap="round" stroke-linejoin="round"/>
<path d="M1 12.5357C1.27614 12.5357 1.5 12.3188 1.5 12.0511C1.5 11.7834 1.27614 11.5664 1 11.5664C0.723858 11.5664 0.5 11.7834 0.5 12.0511C0.5 12.3188 0.723858 12.5357 1 12.5357Z" stroke="#595D62" stroke-linecap="round" stroke-linejoin="round"/>
<path d="M4.5 12.051H13.5" stroke="#595D62" stroke-linecap="round" stroke-linejoin="round"/>
</svg>
