<svg width="16" height="14" viewBox="0 0 16 14" fill="none" xmlns="http://www.w3.org/2000/svg">
<path d="M2 3C2.27614 3 2.5 2.77614 2.5 2.5C2.5 2.22386 2.27614 2 2 2C1.72386 2 1.5 2.22386 1.5 2.5C1.5 2.77614 1.72386 3 2 3Z" stroke="#2D2D2D" stroke-width="1.2" stroke-linecap="round" stroke-linejoin="round"/>
<path d="M5.5 2.5H14.5" stroke="#2D2D2D" stroke-width="1.2" stroke-linecap="round" stroke-linejoin="round"/>
<path d="M2 7.5C2.27614 7.5 2.5 7.27614 2.5 7C2.5 6.72386 2.27614 6.5 2 6.5C1.72386 6.5 1.5 6.72386 1.5 7C1.5 7.27614 1.72386 7.5 2 7.5Z" stroke="#2D2D2D" stroke-width="1.2" stroke-linecap="round" stroke-linejoin="round"/>
<path d="M5.5 7H14.5" stroke="#2D2D2D" stroke-width="1.2" stroke-linecap="round" stroke-linejoin="round"/>
<path d="M2 12C2.27614 12 2.5 11.7761 2.5 11.5C2.5 11.2239 2.27614 11 2 11C1.72386 11 1.5 11.2239 1.5 11.5C1.5 11.7761 1.72386 12 2 12Z" stroke="#2D2D2D" stroke-width="1.2" stroke-linecap="round" stroke-linejoin="round"/>
<path d="M5.5 11.5H14.5" stroke="#2D2D2D" stroke-width="1.2" stroke-linecap="round" stroke-linejoin="round"/>
</svg>
