<svg width="16" height="15" viewBox="0 0 16 15" fill="none" xmlns="http://www.w3.org/2000/svg">
<path d="M6 6C7.24264 6 8.25 4.99264 8.25 3.75C8.25 2.50736 7.24264 1.5 6 1.5C4.75736 1.5 3.75 2.50736 3.75 3.75C3.75 4.99264 4.75736 6 6 6Z" stroke="#2D2D2D" stroke-width="1.2" stroke-linecap="round" stroke-linejoin="round"/>
<path d="M10.5 13.5H1.5V12.5C1.5 11.3065 1.97411 10.1619 2.81802 9.31802C3.66193 8.47411 4.80653 8 6 8C7.19347 8 8.33807 8.47411 9.18198 9.31802C10.0259 10.1619 10.5 11.3065 10.5 12.5V13.5Z" stroke="#2D2D2D" stroke-width="1.2" stroke-linecap="round" stroke-linejoin="round"/>
<path d="M10 1.5C10.5967 1.5 11.169 1.73705 11.591 2.15901C12.0129 2.58097 12.25 3.15326 12.25 3.75C12.25 4.34674 12.0129 4.91903 11.591 5.34099C11.169 5.76295 10.5967 6 10 6" stroke="#2D2D2D" stroke-width="1.2" stroke-linecap="round" stroke-linejoin="round"/>
<path d="M11.6 8.19C12.4518 8.51405 13.1852 9.08911 13.703 9.83909C14.2209 10.5891 14.4988 11.4786 14.5 12.39V13.5H13" stroke="#2D2D2D" stroke-width="1.2" stroke-linecap="round" stroke-linejoin="round"/>
</svg>
