<svg width="16" height="16" viewBox="0 0 16 16" fill="none" xmlns="http://www.w3.org/2000/svg">
<path d="M13.5 4.5H2.5C1.94772 4.5 1.5 4.94772 1.5 5.5V13.5C1.5 14.0523 1.94772 14.5 2.5 14.5H13.5C14.0523 14.5 14.5 14.0523 14.5 13.5V5.5C14.5 4.94772 14.0523 4.5 13.5 4.5Z" stroke="#2D2D2D" stroke-width="1.2" stroke-linecap="round" stroke-linejoin="round"/>
<path d="M6 1.5H10C10.2652 1.5 10.5196 1.60536 10.7071 1.79289C10.8946 1.98043 11 2.23478 11 2.5V4.5H5V2.5C5 2.23478 5.10536 1.98043 5.29289 1.79289C5.48043 1.60536 5.73478 1.5 6 1.5Z" stroke="#2D2D2D" stroke-width="1.2" stroke-linecap="round" stroke-linejoin="round"/>
<path d="M4.5 8H11.5" stroke="#2D2D2D" stroke-width="1.2" stroke-linecap="round" stroke-linejoin="round"/>
<path d="M4.5 11H11.5" stroke="#2D2D2D" stroke-width="1.2" stroke-linecap="round" stroke-linejoin="round"/>
</svg>
