<svg width="65" height="25" viewBox="0 0 65 25" fill="none" xmlns="http://www.w3.org/2000/svg">
<path d="M58.7059 3V12.2308L63.5629 19.2615C63.7995 19.602 63.9468 20.0114 63.9881 20.4428C64.0294 20.8742 63.9628 21.31 63.7961 21.7004C63.6295 22.0907 63.3694 22.4197 63.0457 22.6495C62.7221 22.8794 62.348 23.0009 61.9664 23H50.0336C49.652 23.0009 49.2779 22.8794 48.9543 22.6495C48.6306 22.4197 48.3705 22.0907 48.2039 21.7004C48.0372 21.31 47.9706 20.8742 48.0119 20.4428C48.0532 20.0114 48.2005 19.602 48.4371 19.2615L53.2941 12.2308V3M51.7647 3H60.2353" stroke="#131319" stroke-width="2" stroke-linecap="round" stroke-linejoin="round"/>
<path d="M31.2197 15.9097V23.8751H28.7471V11.512H31.8908L35.8824 20.9256L39.8562 11.512H43V23.8751H40.5274V15.945L37.1187 23.8751H34.6284L31.2197 15.9097Z" fill="#131319"/>
<path d="M24.5842 23.8751L21.8466 20.2721H18.4909V23.8751H16.0183V11.512H22.3765C25.0257 11.512 27.2158 13.2605 27.2158 15.892C27.2158 17.6229 26.0854 19.0711 24.5489 19.7953L27.6573 23.8751H24.5842ZM24.7431 15.892C24.7431 14.6734 23.7541 13.7903 22.3765 13.7903H18.4909V17.9584H22.3765C23.7364 17.9584 24.7431 17.0577 24.7431 15.892Z" fill="#131319"/>
<path d="M3.47263 17.7112C3.47263 20.0955 5.27411 21.7733 7.78206 21.7733C9.56588 21.7733 10.9611 20.9432 11.65 19.601H14.2639C13.5044 22.3738 10.9611 24.14 7.78206 24.14C3.91417 24.14 1 21.3848 1 17.7112C1 13.9846 3.8965 11.247 7.78206 11.247C10.9611 11.247 13.4868 13.0132 14.2639 15.7861H11.65C10.9788 14.4261 9.58354 13.6137 7.78206 13.6137C5.25645 13.6137 3.47263 15.2739 3.47263 17.7112Z" fill="#131319"/>
<path d="M5.63645 7.99554V8.04555H5.68645H6.86944H6.91944V7.99554V2.4901V2.4401H6.86944H5.68645H5.63645V2.4901V3.03743C5.29969 2.60412 4.68852 2.29223 3.91197 2.29223C2.09406 2.29223 0.95 3.86625 0.95 5.24282C0.95 6.68671 2.0136 8.19342 3.85509 8.19342C4.57641 8.19342 5.23953 7.90453 5.63645 7.4385V7.99554ZM4.00297 6.97868C3.07572 6.97868 2.30124 6.20545 2.30124 5.24282C2.30124 4.2802 3.07572 3.50697 4.00297 3.50697C4.90705 3.50697 5.68195 4.27977 5.68195 5.24282C5.68195 6.20588 4.90705 6.97868 4.00297 6.97868Z" fill="#131319" stroke="#131319" stroke-width="0.1"/>
<path d="M7.72943 8.14341V8.19341H7.77943H8.96241H9.01241V8.14341V5.06082C9.01241 4.62293 9.15622 4.28974 9.38814 4.06595C9.62043 3.84182 9.94561 3.72308 10.316 3.72308C10.7003 3.72308 11.0126 3.82325 11.2292 4.03842C11.4456 4.25351 11.5741 4.59137 11.5741 5.08357V8.14341V8.19341H11.6241H12.8071H12.8571V8.14341V4.82195C12.8571 3.43206 11.8591 2.4401 10.6686 2.4401C9.9523 2.4401 9.3638 2.73494 9.01241 3.20503V2.63797V2.58797H8.96241H7.77943H7.72943V2.63797V8.14341Z" fill="#131319" stroke="#131319" stroke-width="0.1"/>
<path d="M18.3536 7.99554V8.04555H18.4036H19.5866H19.6366V7.99554V2.4901V2.4401H19.5866H18.4036H18.3536V2.4901V3.03743C18.0168 2.60412 17.4056 2.29223 16.6291 2.29223C14.8112 2.29223 13.6671 3.86625 13.6671 5.24282C13.6671 6.68671 14.7307 8.19342 16.5722 8.19342C17.2935 8.19342 17.9567 7.90453 18.3536 7.4385V7.99554ZM16.7201 6.97868C15.7928 6.97868 15.0184 6.20545 15.0184 5.24282C15.0184 4.2802 15.7928 3.50697 16.7201 3.50697C17.6242 3.50697 18.3991 4.27977 18.3991 5.24282C18.3991 6.20588 17.6242 6.97868 16.7201 6.97868Z" fill="#131319" stroke="#131319" stroke-width="0.1"/>
<path d="M26.0275 3.71609L26.0736 3.68874L26.0431 3.64466C25.5012 2.86063 24.725 2.29223 23.5336 2.29223C21.5815 2.29223 20.4465 3.7614 20.4465 5.24282C20.4465 6.72425 21.5815 8.19342 23.5336 8.19342C24.5975 8.19342 25.5461 7.62705 26.0442 6.83928L26.0717 6.79581L26.0275 6.76956L24.9924 6.15532L24.9507 6.13058L24.9247 6.17147C24.6134 6.66064 24.1615 6.97868 23.5336 6.97868C22.527 6.97868 21.7978 6.20567 21.7978 5.24282C21.7978 4.27998 22.527 3.50697 23.5336 3.50697C24.1834 3.50697 24.613 3.83556 24.925 4.31462L24.9511 4.35481L24.9924 4.33033L26.0275 3.71609Z" fill="#131319" stroke="#131319" stroke-width="0.1"/>
<path d="M26.862 8.14342V8.19342H26.912H28.095H28.145V8.14342V5.06083C28.145 4.62294 28.2888 4.28975 28.5207 4.06596C28.753 3.84183 29.0782 3.7231 29.4486 3.7231C29.8328 3.7231 30.1452 3.82326 30.3617 4.03843C30.5781 4.25352 30.7067 4.59139 30.7067 5.08358V8.14342V8.19342H30.7567H31.9397H31.9897V8.14342V4.82196C31.9897 3.43207 30.9917 2.44011 29.8012 2.44011C29.0848 2.44011 28.4963 2.73495 28.145 3.20504V1V0.95H28.095H26.912H26.862V1V8.14342Z" fill="#131319" stroke="#131319" stroke-width="0.1"/>
<path d="M37.4694 6.20013L37.4313 6.1789L37.4051 6.21381C37.0035 6.74928 36.4715 7.04693 35.8526 7.04693C35.0615 7.04693 34.3187 6.48541 34.2244 5.70232H38.7418H38.7918V5.65232V5.4362C38.7918 3.25318 37.0573 2.29223 35.8867 2.29223C33.9347 2.29223 32.7996 3.7614 32.7996 5.24282C32.7996 6.72425 33.9347 8.19342 35.8867 8.19342L35.8873 8.19342C36.8943 8.18184 37.8177 7.67247 38.4852 6.83229L38.5219 6.78616L38.4704 6.7575L37.4694 6.20013ZM37.2861 4.62408H34.2333C34.437 3.86531 35.0196 3.43872 35.7275 3.43872C36.4358 3.43872 37.0298 3.84439 37.2861 4.62408Z" fill="#131319" stroke="#131319" stroke-width="0.1"/>
<path d="M39.6018 8.14341V8.19341H39.6518H40.8348H40.8848V8.14341V4.7082C40.8848 4.3892 40.9864 4.14329 41.1428 3.97755C41.2992 3.81174 41.5133 3.72308 41.7448 3.72308C42.0191 3.72308 42.2516 3.80511 42.4161 3.98417C42.5811 4.16383 42.6844 4.44851 42.6844 4.86745V8.14341V8.19341H42.7344H43.9174H43.9674V8.14341V4.86745C43.9674 4.44851 44.0707 4.16383 44.2358 3.98417C44.4002 3.80511 44.6327 3.72308 44.907 3.72308C45.1385 3.72308 45.3526 3.81174 45.5091 3.97755C45.6655 4.14329 45.767 4.3892 45.767 4.7082V8.14341V8.19341H45.817H47H47.05V8.14341V4.69682C47.05 3.98578 46.8127 3.42105 46.4343 3.03385C46.0561 2.64685 45.5396 2.4401 44.9866 2.4401C44.1813 2.4401 43.5765 2.80849 43.3259 3.36456C43.0754 2.80848 42.4705 2.4401 41.6652 2.4401C41.1122 2.4401 40.5958 2.64685 40.2175 3.03385C39.8391 3.42105 39.6018 3.98578 39.6018 4.69682V8.14341Z" fill="#131319" stroke="#131319" stroke-width="0.1"/>
</svg>
